# xmcd
#
# Track frame offsets: 
#        150
#        18222
#        36221
#        52766
#        69341
#        88813
#        104726
#        123270
#        139639
#        155975
#        172246
#        207357
#
# Disc length: 2794 seconds
#
# Revision: 0
# Processed by: cddbd v1.5.2PL0 Copyright (c) Steve Scherf et al.
# Submitted via: ExactAudioCopy v1.0b3
#
DISCID=a80ae80c
DTITLE=Almasäla - Ahora
DYEAR=2008
DGENRE=Flamenco
TTITLE0=Cantarillo
TTITLE1=Agüita De Rio
TTITLE2=África
TTITLE3=Mujer
TTITLE4=Paisajes
TTITLE5=Guajiro
TTITLE6=Alegrías
TTITLE7=Distinta
TTITLE8=Rueda
TTITLE9=Sentimiento
TTITLE10=Vuela
TTITLE11=Data Track
EXTD=
EXTT0=
EXTT1=
EXTT2=
EXTT3=
EXTT4=
EXTT5=
EXTT6=
EXTT7=
EXTT8=
EXTT9=
EXTT10=
EXTT11=
PLAYORDER=
